<svg class="{{ .class }}" viewBox="0 0 48 49" fill="none" xmlns="http://www.w3.org/2000/svg">
<circle opacity="0.2" cx="24" cy="24.6611" r="24" fill="currentcolor"/>
<mask id="mask0_4_1319" style="mask-type:alpha" maskUnits="userSpaceOnUse" x="8" y="9" width="32" height="31">
<rect x="8.8418" y="9.50317" width="30.3158" height="30.3158" fill="#D9D9D9"/>
</mask>
<g mask="url(#mask0_4_1319)">
<path d="M23.9998 24.6611C24.6945 24.6611 25.2893 24.4138 25.784 23.919C26.2787 23.4243 26.5261 22.8295 26.5261 22.1348C26.5261 21.4401 26.2787 20.8453 25.784 20.3506C25.2893 19.8559 24.6945 19.6085 23.9998 19.6085C23.3051 19.6085 22.7103 19.8559 22.2156 20.3506C21.7208 20.8453 21.4735 21.4401 21.4735 22.1348C21.4735 22.8295 21.7208 23.4243 22.2156 23.919C22.7103 24.4138 23.3051 24.6611 23.9998 24.6611ZM23.9998 37.2927C20.6103 34.4085 18.0787 31.7295 16.4051 29.2559C14.7314 26.7822 13.8945 24.4927 13.8945 22.3874C13.8945 19.2295 14.9103 16.7138 16.9419 14.8401C18.9735 12.9664 21.3261 12.0295 23.9998 12.0295C26.6735 12.0295 29.0261 12.9664 31.0577 14.8401C33.0893 16.7138 34.1051 19.2295 34.1051 22.3874C34.1051 24.4927 33.2682 26.7822 31.5945 29.2559C29.9208 31.7295 27.3893 34.4085 23.9998 37.2927Z" fill="currentcolor"/>
</g>
</svg>
