<svg class="{{ .class }}" viewBox="0 0 48 49" fill="none" xmlns="http://www.w3.org/2000/svg">
<circle opacity="0.2" cx="24" cy="24.1611" r="24" fill="#92B87C"/>
<path d="M34.3662 29.6085C32.6874 28.1726 30.9837 27.3029 29.3255 28.7366L28.3354 29.6031C27.611 30.2321 26.264 33.171 21.0563 27.1803C15.8497 21.1973 18.9481 20.2657 19.6736 19.6421L20.6692 18.7745C22.3187 17.3376 21.6962 15.5287 20.5065 13.6666L19.7886 12.5387C18.5935 10.681 17.2921 9.46099 15.6383 10.8958L14.7447 11.6766C14.0137 12.2091 11.9706 13.9399 11.4749 17.228C10.8785 21.1734 12.7601 25.6913 17.0709 30.6485C21.3763 35.6078 25.5916 38.0989 29.5847 38.0555C32.9032 38.0197 34.9073 36.239 35.5342 35.5916L36.431 34.8097C38.0805 33.376 37.0557 31.9163 35.3758 30.4772L34.3662 29.6085Z" fill="#92B87C"/>
</svg>
