<svg class="{{ .class }}" viewBox="0 0 48 49" fill="none" xmlns="http://www.w3.org/2000/svg">
<circle opacity="0.2" cx="24" cy="24.6611" r="24" fill="currentcolor"/>
<mask id="mask0_4_1318" style="mask-type:alpha" maskUnits="userSpaceOnUse" x="8" y="9" width="32" height="31">
<rect x="8.8418" y="9.50317" width="30.3158" height="30.3158" fill="#D9D9D9"/>
</mask>
<g mask="url(#mask0_4_1318)">
<path d="M13.8955 34.7664C13.2007 34.7664 12.606 34.5191 12.1112 34.0243C11.6165 33.5296 11.3691 32.9349 11.3691 32.2401V17.0822C11.3691 16.3875 11.6165 15.7928 12.1112 15.298C12.606 14.8033 13.2007 14.5559 13.8955 14.5559H34.106C34.8007 14.5559 35.3955 14.8033 35.8902 15.298C36.3849 15.7928 36.6323 16.3875 36.6323 17.0822V32.2401C36.6323 32.9349 36.3849 33.5296 35.8902 34.0243C35.3955 34.5191 34.8007 34.7664 34.106 34.7664H13.8955ZM24.0007 25.9243L34.106 19.6085V17.0822L24.0007 23.398L13.8955 17.0822V19.6085L24.0007 25.9243Z" fill="currentcolor"/>
</g>
</svg>
