<svg width="242" height="70" viewBox="0 0 242 70" fill="none" xmlns="http://www.w3.org/2000/svg">
<rect width="242" height="70" rx="10" fill="white"/>
<path d="M54.0073 34.6216C53.9554 28.9814 58.738 26.2374 58.9567 26.1096C56.2481 22.2544 52.0498 21.7276 50.5745 21.6856C47.0485 21.3234 43.6282 23.7454 41.8321 23.7454C40 23.7454 37.2341 21.7206 34.253 21.7801C30.4168 21.8379 26.8281 24.0061 24.8598 27.3731C20.7978 34.2384 23.8273 44.3271 27.719 49.8764C29.6657 52.5941 31.9405 55.6286 34.918 55.5219C37.831 55.4046 38.9191 53.7089 42.4344 53.7089C45.9174 53.7089 46.9391 55.5219 49.9758 55.4536C53.1021 55.4046 55.0703 52.7236 56.949 49.9814C59.1987 46.8664 60.1022 43.7986 60.138 43.6411C60.0645 43.6166 54.0665 41.3819 54.0073 34.6216Z" fill="black"/>
<path d="M48.271 18.0351C49.8378 16.1224 50.9097 13.5201 50.6122 10.8794C48.3445 10.9774 45.5087 12.4106 43.8756 14.2814C42.4308 15.9299 41.1401 18.6319 41.4735 21.1729C44.0208 21.3584 46.6362 19.9181 48.271 18.0351Z" fill="black"/>
<path d="M96.1637 55.1318H92.0927L89.8627 48.291H82.1116L79.9873 55.1318H76.0239L83.7034 31.8428H88.4466L96.1637 55.1318ZM89.1905 45.421L87.1738 39.3398C86.9605 38.7185 86.5608 37.2555 85.971 34.9525H85.8993C85.6645 35.943 85.2862 37.406 84.7664 39.3398L82.7856 45.421H89.1905Z" fill="black"/>
<path d="M115.913 46.5289C115.913 49.3849 115.122 51.6424 113.541 53.2996C112.125 54.7749 110.366 55.5116 108.267 55.5116C106.001 55.5116 104.374 54.7171 103.382 53.1281H103.311V61.9744H99.4889V43.8671C99.4889 42.0716 99.4405 40.2289 99.3473 38.3389H102.708L102.922 41.0006H102.993C104.268 38.9951 106.202 37.9941 108.798 37.9941C110.827 37.9941 112.521 38.7764 113.876 40.3426C115.235 41.9106 115.913 43.9721 115.913 46.5289ZM112.019 46.6654C112.019 45.0309 111.643 43.6834 110.886 42.6229C110.06 41.5169 108.95 40.9639 107.559 40.9639C106.616 40.9639 105.759 41.2719 104.994 41.8791C104.227 42.4916 103.725 43.2914 103.49 44.2819C103.372 44.7439 103.313 45.1219 103.313 45.4194V48.2194C103.313 49.4409 103.696 50.4716 104.463 51.3134C105.231 52.1551 106.227 52.5751 107.453 52.5751C108.893 52.5751 110.013 52.0326 110.815 50.9511C111.618 49.8679 112.019 48.4399 112.019 46.6654Z" fill="black"/>
<path d="M135.697 46.5289C135.697 49.3849 134.907 51.6424 133.324 53.2996C131.91 54.7749 130.151 55.5116 128.052 55.5116C125.786 55.5116 124.159 54.7171 123.169 53.1281H123.097V61.9744H119.276V43.8671C119.276 42.0716 119.227 40.2289 119.134 38.3389H122.495L122.708 41.0006H122.78C124.053 38.9951 125.987 37.9941 128.584 37.9941C130.612 37.9941 132.306 38.7764 133.665 40.3426C135.018 41.9106 135.697 43.9721 135.697 46.5289ZM131.804 46.6654C131.804 45.0309 131.426 43.6834 130.669 42.6229C129.843 41.5169 128.737 40.9639 127.344 40.9639C126.399 40.9639 125.544 41.2719 124.777 41.8791C124.01 42.4916 123.51 43.2914 123.275 44.2819C123.158 44.7439 123.097 45.1219 123.097 45.4194V48.2194C123.097 49.4409 123.481 50.4716 124.245 51.3134C125.012 52.1534 126.009 52.5751 127.238 52.5751C128.678 52.5751 129.798 52.0326 130.599 50.9511C131.402 49.8679 131.804 48.4399 131.804 46.6654Z" fill="black"/>
<path d="M157.818 48.6007C157.818 50.5817 157.113 52.1935 155.699 53.4377C154.145 54.7975 151.981 55.4765 149.201 55.4765C146.634 55.4765 144.576 54.9935 143.018 54.0257L143.904 50.916C145.582 51.9065 147.423 52.4035 149.429 52.4035C150.868 52.4035 151.988 52.085 152.793 51.4515C153.595 50.818 153.994 49.9675 153.994 48.907C153.994 47.962 153.665 47.1657 153.003 46.52C152.345 45.8742 151.246 45.274 149.712 44.7192C145.535 43.1985 143.449 40.9707 143.449 38.0412C143.449 36.1267 144.18 34.557 145.644 33.3355C147.104 32.1122 149.05 31.5015 151.485 31.5015C153.656 31.5015 155.459 31.8707 156.898 32.6075L155.943 35.649C154.598 34.935 153.078 34.578 151.377 34.578C150.033 34.578 148.982 34.9017 148.229 35.5457C147.593 36.1215 147.274 36.8232 147.274 37.6545C147.274 38.575 147.638 39.3362 148.369 39.9347C149.006 40.4877 150.162 41.0862 151.84 41.732C153.892 42.5387 155.4 43.482 156.37 44.5635C157.336 45.6415 157.818 46.9907 157.818 48.6007Z" fill="black"/>
<path d="M170.454 41.1385H166.242V49.2918C166.242 51.3655 166.984 52.4015 168.472 52.4015C169.155 52.4015 169.721 52.3438 170.169 52.2283L170.275 55.0615C169.522 55.3363 168.531 55.4745 167.303 55.4745C165.793 55.4745 164.614 55.0248 163.762 54.127C162.915 53.2275 162.488 51.719 162.488 49.5998V41.135H159.978V38.335H162.488V35.2603L166.242 34.1543V38.335H170.454V41.1385Z" fill="black"/>
<path d="M189.461 46.5969C189.461 49.1781 188.704 51.2974 187.195 52.9546C185.612 54.6609 183.511 55.5114 180.892 55.5114C178.368 55.5114 176.359 54.6941 174.86 53.0596C173.362 51.4251 172.612 49.3619 172.612 46.8751C172.612 44.2729 173.383 42.1414 174.93 40.4841C176.474 38.8251 178.557 37.9956 181.176 37.9956C183.699 37.9956 185.73 38.8129 187.263 40.4491C188.729 42.0364 189.461 44.0856 189.461 46.5969ZM185.496 46.7176C185.496 45.1689 185.157 43.8406 184.47 42.7329C183.669 41.3924 182.524 40.7239 181.039 40.7239C179.503 40.7239 178.336 41.3941 177.535 42.7329C176.848 43.8424 176.509 45.1916 176.509 46.7876C176.509 48.3364 176.848 49.6646 177.535 50.7706C178.361 52.1111 179.516 52.7796 181.005 52.7796C182.464 52.7796 183.61 52.0971 184.436 50.7356C185.141 49.6069 185.496 48.2646 185.496 46.7176Z" fill="black"/>
<path d="M201.884 41.6201C201.506 41.5519 201.102 41.5169 200.679 41.5169C199.335 41.5169 198.295 42.0121 197.564 43.0044C196.927 43.8794 196.608 44.9854 196.608 46.3206V55.1319H192.788L192.824 43.6274C192.824 41.6919 192.776 39.9296 192.681 38.3406H196.009L196.149 41.5536H196.255C196.658 40.4494 197.295 39.5604 198.166 38.8936C199.017 38.2934 199.937 37.9941 200.928 37.9941C201.281 37.9941 201.601 38.0186 201.884 38.0624V41.6201Z" fill="black"/>
<path d="M218.976 45.9411C218.976 46.6096 218.931 47.1731 218.836 47.6334H207.371C207.416 49.2924 207.969 50.5611 209.034 51.4361C210 52.2184 211.25 52.6104 212.784 52.6104C214.482 52.6104 216.031 52.3461 217.424 51.8159L218.022 54.4059C216.395 55.0989 214.473 55.4436 212.256 55.4436C209.588 55.4436 207.494 54.6771 205.971 53.1459C204.451 51.6146 203.689 49.5584 203.689 46.9789C203.689 44.4466 204.397 42.3379 205.815 40.6561C207.299 38.8606 209.305 37.9629 211.829 37.9629C214.308 37.9629 216.185 38.8606 217.459 40.6561C218.469 42.0824 218.976 43.8464 218.976 45.9411ZM215.332 44.9734C215.357 43.8674 215.108 42.9119 214.589 42.1051C213.928 41.0674 212.912 40.5494 211.544 40.5494C210.294 40.5494 209.278 41.0551 208.502 42.0701C207.865 42.8769 207.487 43.8446 207.371 44.9716H215.332V44.9734Z" fill="black"/>
<path d="M87.9267 17.5157C87.9267 19.5755 87.294 21.126 86.0302 22.1672C84.8596 23.128 83.1961 23.6092 81.0414 23.6092C79.973 23.6092 79.0588 23.5637 78.2933 23.4727V12.2185C79.2918 12.061 80.3674 11.9805 81.529 11.9805C83.5815 11.9805 85.1285 12.4162 86.1718 13.2877C87.3406 14.273 87.9267 15.6817 87.9267 17.5157ZM85.9459 17.5665C85.9459 16.2312 85.5838 15.2075 84.8596 14.4935C84.1354 13.7812 83.0778 13.4242 81.6849 13.4242C81.0934 13.4242 80.5896 13.4627 80.172 13.5432V22.099C80.4032 22.134 80.8263 22.1497 81.4411 22.1497C82.8788 22.1497 83.9884 21.7595 84.77 20.979C85.5516 20.1985 85.9459 19.061 85.9459 17.5665Z" fill="black"/>
<path d="M98.4297 19.3143C98.4297 20.5831 98.0587 21.6226 97.3165 22.4381C96.5385 23.2763 95.5078 23.6946 94.2207 23.6946C92.9802 23.6946 91.9925 23.2938 91.2558 22.4888C90.5208 21.6856 90.1533 20.6723 90.1533 19.4508C90.1533 18.1733 90.5316 17.1251 91.2916 16.3113C92.0517 15.4976 93.0735 15.0898 94.3605 15.0898C95.601 15.0898 96.5977 15.4906 97.3524 16.2938C98.0694 17.0743 98.4297 18.0823 98.4297 19.3143ZM96.4812 19.3738C96.4812 18.6126 96.3127 17.9598 95.9775 17.4156C95.5831 16.7576 95.022 16.4286 94.2924 16.4286C93.5377 16.4286 92.9641 16.7576 92.5697 17.4156C92.2327 17.9598 92.066 18.6231 92.066 19.4071C92.066 20.1683 92.2345 20.8211 92.5697 21.3653C92.9767 22.0233 93.5431 22.3523 94.2745 22.3523C94.9915 22.3523 95.5544 22.0181 95.9595 21.3478C96.3073 20.7931 96.4812 20.1351 96.4812 19.3738Z" fill="black"/>
<path d="M112.512 15.2578L109.868 23.5073H108.147L107.052 19.9251C106.774 19.0308 106.548 18.1418 106.373 17.2598H106.339C106.176 18.1663 105.95 19.0536 105.659 19.9251L104.496 23.5073H102.755L100.269 15.2578H102.2L103.155 19.1796C103.386 20.1071 103.576 20.9908 103.729 21.8273H103.763C103.902 21.1378 104.134 20.2593 104.46 19.1971L105.659 15.2596H107.19L108.339 19.1131C108.617 20.0528 108.843 20.9576 109.017 21.8291H109.069C109.196 20.9803 109.388 20.0756 109.642 19.1131L110.668 15.2596H112.512V15.2578Z" fill="black"/>
<path d="M122.251 23.5077H120.373V18.7827C120.373 17.3267 119.806 16.5987 118.67 16.5987C118.112 16.5987 117.662 16.7982 117.313 17.199C116.967 17.5997 116.791 18.0722 116.791 18.613V23.506H114.912V17.6155C114.912 16.891 114.889 16.1052 114.844 15.2547H116.495L116.583 16.5445H116.635C116.854 16.1437 117.18 15.813 117.609 15.5487C118.118 15.2407 118.688 15.085 119.311 15.085C120.1 15.085 120.756 15.3335 121.278 15.8322C121.927 16.443 122.251 17.3547 122.251 18.5657V23.5077Z" fill="black"/>
<path d="M127.432 23.5074H125.555V11.4727H127.432V23.5074Z" fill="black"/>
<path d="M138.492 19.3143C138.492 20.5831 138.121 21.6226 137.379 22.4381C136.601 23.2763 135.569 23.6946 134.283 23.6946C133.041 23.6946 132.053 23.2938 131.318 22.4888C130.583 21.6856 130.216 20.6723 130.216 19.4508C130.216 18.1733 130.594 17.1251 131.354 16.3113C132.114 15.4976 133.136 15.0898 134.421 15.0898C135.664 15.0898 136.659 15.4906 137.415 16.2938C138.132 17.0743 138.492 18.0823 138.492 19.3143ZM136.542 19.3738C136.542 18.6126 136.373 17.9598 136.038 17.4156C135.646 16.7576 135.083 16.4286 134.355 16.4286C133.599 16.4286 133.025 16.7576 132.632 17.4156C132.295 17.9598 132.129 18.6231 132.129 19.4071C132.129 20.1683 132.297 20.8211 132.632 21.3653C133.039 22.0233 133.606 22.3523 134.337 22.3523C135.054 22.3523 135.615 22.0181 136.02 21.3478C136.37 20.7931 136.542 20.1351 136.542 19.3738Z" fill="black"/>
<path d="M147.584 23.5073H145.897L145.758 22.5571H145.706C145.128 23.3148 144.306 23.6946 143.237 23.6946C142.44 23.6946 141.794 23.4443 141.308 22.9473C140.867 22.4958 140.647 21.9341 140.647 21.2673C140.647 20.2593 141.077 19.4911 141.943 18.9591C142.807 18.4271 144.022 18.1663 145.587 18.1786V18.0246C145.587 16.9378 145.003 16.3953 143.832 16.3953C142.999 16.3953 142.264 16.6001 141.629 17.0061L141.247 15.8021C142.033 15.3278 143.002 15.0898 144.146 15.0898C146.355 15.0898 147.462 16.2273 147.462 18.5023V21.5403C147.462 22.3646 147.504 23.0208 147.584 23.5073ZM145.634 20.6723V19.4001C143.562 19.3651 142.526 19.9198 142.526 21.0626C142.526 21.4931 142.644 21.8151 142.886 22.0303C143.128 22.2456 143.436 22.3523 143.804 22.3523C144.216 22.3523 144.601 22.2246 144.953 21.9708C145.306 21.7153 145.523 21.3916 145.603 20.9943C145.623 20.9051 145.634 20.7966 145.634 20.6723Z" fill="black"/>
<path d="M158.259 23.5074H156.592L156.504 22.1827H156.452C155.92 23.1907 155.013 23.6947 153.738 23.6947C152.72 23.6947 151.872 23.3044 151.2 22.5239C150.528 21.7434 150.193 20.7302 150.193 19.4859C150.193 18.1507 150.556 17.0692 151.288 16.2432C151.996 15.4732 152.863 15.0882 153.896 15.0882C155.031 15.0882 155.825 15.4609 156.277 16.2082H156.312V11.4727H158.193V21.2849C158.193 22.0882 158.214 22.8284 158.259 23.5074ZM156.312 20.0284V18.6529C156.312 18.4149 156.294 18.2224 156.26 18.0754C156.155 17.6344 155.927 17.2634 155.581 16.9642C155.231 16.6649 154.81 16.5144 154.324 16.5144C153.624 16.5144 153.075 16.7857 152.672 17.3299C152.272 17.8742 152.069 18.5689 152.069 19.4177C152.069 20.2332 152.261 20.8947 152.647 21.4039C153.053 21.9464 153.602 22.2177 154.289 22.2177C154.905 22.2177 155.398 21.9919 155.773 21.5387C156.135 21.1204 156.312 20.6164 156.312 20.0284Z" fill="black"/>
<path d="M174.326 19.3143C174.326 20.5831 173.955 21.6226 173.213 22.4381C172.435 23.2763 171.406 23.6946 170.117 23.6946C168.879 23.6946 167.891 23.2938 167.152 22.4888C166.417 21.6856 166.05 20.6723 166.05 19.4508C166.05 18.1733 166.428 17.1251 167.188 16.3113C167.948 15.4976 168.97 15.0898 170.259 15.0898C171.497 15.0898 172.496 15.4906 173.249 16.2938C173.966 17.0743 174.326 18.0823 174.326 19.3143ZM172.379 19.3738C172.379 18.6126 172.211 17.9598 171.876 17.4156C171.48 16.7576 170.92 16.4286 170.189 16.4286C169.436 16.4286 168.862 16.7576 168.466 17.4156C168.129 17.9598 167.963 18.6231 167.963 19.4071C167.963 20.1683 168.131 20.8211 168.466 21.3653C168.873 22.0233 169.44 22.3523 170.171 22.3523C170.888 22.3523 171.453 22.0181 171.858 21.3478C172.204 20.7931 172.379 20.1351 172.379 19.3738Z" fill="black"/>
<path d="M184.427 23.5077H182.55V18.7827C182.55 17.3267 181.984 16.5987 180.846 16.5987C180.288 16.5987 179.838 16.7982 179.49 17.199C179.143 17.5997 178.969 18.0722 178.969 18.613V23.506H177.088V17.6155C177.088 16.891 177.067 16.1052 177.022 15.2547H178.671L178.759 16.5445H178.811C179.032 16.1437 179.358 15.813 179.784 15.5487C180.295 15.2407 180.864 15.085 181.489 15.085C182.276 15.085 182.932 15.3335 183.454 15.8322C184.105 16.443 184.427 17.3547 184.427 18.5657V23.5077Z" fill="black"/>
<path d="M197.071 16.6319H195.002V20.6394C195.002 21.6579 195.369 22.1671 196.097 22.1671C196.434 22.1671 196.714 22.1391 196.934 22.0814L196.983 23.4726C196.612 23.6091 196.124 23.6774 195.524 23.6774C194.781 23.6774 194.204 23.4569 193.787 23.0159C193.367 22.5749 193.159 21.8329 193.159 20.7916V16.6319H191.924V15.2581H193.159V13.7461L195 13.2036V15.2564H197.069V16.6319H197.071Z" fill="black"/>
<path d="M207.016 23.5074H205.135V18.8174C205.135 17.3387 204.569 16.5984 203.434 16.5984C202.563 16.5984 201.968 17.0272 201.642 17.8847C201.586 18.0649 201.554 18.2854 201.554 18.5444V23.5057H199.677V11.4727H201.554V16.4444H201.59C202.181 15.5397 203.029 15.0882 204.128 15.0882C204.906 15.0882 205.549 15.3367 206.06 15.8354C206.697 16.4567 207.016 17.3807 207.016 18.6022V23.5074Z" fill="black"/>
<path d="M217.275 18.9925C217.275 19.3215 217.25 19.598 217.205 19.8237H211.571C211.596 20.6392 211.865 21.2605 212.387 21.691C212.863 22.076 213.478 22.2685 214.231 22.2685C215.065 22.2685 215.825 22.139 216.51 21.8782L216.804 23.1522C216.002 23.4917 215.059 23.6615 213.968 23.6615C212.659 23.6615 211.628 23.2852 210.883 22.5327C210.133 21.7802 209.762 20.7705 209.762 19.5035C209.762 18.2592 210.108 17.2232 210.805 16.3972C211.533 15.5152 212.517 15.0742 213.76 15.0742C214.975 15.0742 215.898 15.5152 216.522 16.3972C217.026 17.0972 217.275 17.9635 217.275 18.9925ZM215.482 18.5182C215.497 17.974 215.373 17.505 215.118 17.1095C214.792 16.6002 214.296 16.3447 213.623 16.3447C213.01 16.3447 212.51 16.5932 212.128 17.092C211.817 17.4892 211.632 17.9635 211.571 18.5182H215.482Z" fill="black"/>
</svg>
