<svg width="242" height="70" viewBox="0 0 242 70" fill="none" xmlns="http://www.w3.org/2000/svg">
<g clip-path="url(#clip0_1_30938)">
<rect width="242" height="70" rx="10" fill="white"/>
<path d="M84.999 17.9265C84.999 19.3877 84.5509 20.558 83.6682 21.4309C82.6532 22.4655 81.3313 22.9862 79.7115 22.9862C78.1633 22.9862 76.8414 22.4568 75.757 21.4134C74.6703 20.3546 74.1281 19.0552 74.1281 17.4999C74.1281 15.9446 74.6703 14.6452 75.757 13.5952C76.8414 12.543 78.1633 12.0137 79.7115 12.0137C80.4822 12.0137 81.2171 12.169 81.9183 12.4577C82.6174 12.7487 83.1865 13.1424 83.5987 13.628L82.6622 14.5512C81.943 13.7221 80.9639 13.313 79.7115 13.313C78.5822 13.313 77.6031 13.698 76.7719 14.4746C75.9496 15.2534 75.5374 16.2618 75.5374 17.4999C75.5374 18.738 75.9496 19.7552 76.7719 20.534C77.6031 21.3018 78.5822 21.6955 79.7115 21.6955C80.9101 21.6955 81.9184 21.3018 82.7137 20.5252C83.238 20.0112 83.536 19.3024 83.6144 18.3968H79.7115V17.1324H84.9184C84.9811 17.4059 84.999 17.6705 84.999 17.9265Z" fill="black"/>
<path d="M93.2611 13.5428H88.3701V16.8678H92.7794V18.1322H88.3701V21.4572H93.2611V22.7456H86.9855V12.2544H93.2611V13.5428Z" fill="black"/>
<path d="M99.0919 22.7456H97.7072V13.5428H94.7072V12.2544H102.094V13.5428H99.0919V22.7456Z" fill="black"/>
<path d="M107.441 22.7456V12.2544H108.824V22.7456H107.441Z" fill="black"/>
<path d="M114.952 22.7456H113.578V13.5428H110.567V12.2544H117.963V13.5428H114.952V22.7456Z" fill="black"/>
<path d="M131.95 21.3959C130.89 22.4568 129.577 22.9862 128.011 22.9862C126.436 22.9862 125.123 22.4568 124.063 21.3959C123.005 20.3371 122.479 19.0377 122.479 17.4999C122.479 15.9621 123.005 14.6627 124.063 13.604C125.123 12.543 126.436 12.0137 128.011 12.0137C129.568 12.0137 130.881 12.543 131.941 13.6127C133.007 14.6802 133.534 15.9709 133.534 17.4999C133.534 19.0377 133.007 20.3371 131.95 21.3959ZM125.087 20.5165C125.884 21.3018 126.855 21.6955 128.011 21.6955C129.158 21.6955 130.137 21.3018 130.926 20.5165C131.721 19.7312 132.124 18.7227 132.124 17.4999C132.124 16.2771 131.721 15.2687 130.926 14.4834C130.137 13.698 129.158 13.3043 128.011 13.3043C126.855 13.3043 125.884 13.698 125.087 14.4834C124.291 15.2687 123.888 16.2771 123.888 17.4999C123.888 18.7227 124.291 19.7312 125.087 20.5165Z" fill="black"/>
<path d="M135.477 22.7456V12.2544H137.158L142.383 20.4138H142.443L142.383 18.3969V12.2544H143.765V22.7456H142.322L136.851 14.1838H136.79L136.851 16.2094V22.7456H135.477Z" fill="black"/>
<path d="M122.138 38.0665C117.928 38.0665 114.488 41.1946 114.488 45.5106C114.488 49.7915 117.928 52.9524 122.138 52.9524C126.358 52.9524 129.797 49.7915 129.797 45.5106C129.797 41.1946 126.358 38.0665 122.138 38.0665ZM122.138 50.0212C119.828 50.0212 117.841 48.1596 117.841 45.5106C117.841 42.8265 119.828 40.9978 122.138 40.9978C124.448 40.9978 126.445 42.8265 126.445 45.5106C126.445 48.1596 124.448 50.0212 122.138 50.0212ZM105.447 38.0665C101.228 38.0665 97.7971 41.1946 97.7971 45.5106C97.7971 49.7915 101.228 52.9524 105.447 52.9524C109.664 52.9524 113.097 49.7915 113.097 45.5106C113.097 41.1946 109.664 38.0665 105.447 38.0665ZM105.447 50.0212C103.135 50.0212 101.14 48.1596 101.14 45.5106C101.14 42.8265 103.135 40.9978 105.447 40.9978C107.757 40.9978 109.745 42.8265 109.745 45.5106C109.745 48.1596 107.757 50.0212 105.447 50.0212ZM85.5851 40.3481V43.5112H93.3224C93.096 45.2787 92.491 46.5781 91.5634 47.4837C90.434 48.5774 88.6751 49.7915 85.5851 49.7915C80.8235 49.7915 77.0949 46.0399 77.0949 41.3915C77.0949 36.7431 80.8235 32.9915 85.5851 32.9915C88.1597 32.9915 90.033 33.9737 91.4155 35.2468L93.6988 33.0178C91.765 31.2153 89.1927 29.8306 85.5851 29.8306C79.0556 29.8306 73.568 35.0171 73.568 41.3915C73.568 47.7659 79.0556 52.9524 85.5851 52.9524C89.1142 52.9524 91.765 51.8237 93.8489 49.7062C95.9844 47.6215 96.6499 44.6903 96.6499 42.3234C96.6499 41.5884 96.5871 40.9124 96.4751 40.3481H85.5851ZM166.803 42.8003C166.173 41.1356 164.231 38.0665 160.273 38.0665C156.352 38.0665 153.087 41.0831 153.087 45.5106C153.087 49.6799 156.319 52.9524 160.65 52.9524C164.152 52.9524 166.173 50.8678 167.005 49.6537L164.405 47.9628C163.538 49.2009 162.357 50.0212 160.65 50.0212C158.954 50.0212 157.737 49.2621 156.957 47.7659L167.155 43.6468L166.803 42.8003ZM156.406 45.2787C156.319 42.4087 158.689 40.9387 160.388 40.9387C161.719 40.9387 162.848 41.5884 163.224 42.5181L156.406 45.2787ZM148.117 52.4996H151.47V30.6246H148.117V52.4996ZM142.628 39.7246H142.516C141.763 38.854 140.326 38.0665 138.507 38.0665C134.689 38.0665 131.198 41.339 131.198 45.5346C131.198 49.7062 134.689 52.9524 138.507 52.9524C140.326 52.9524 141.763 52.1584 142.516 51.2615H142.628V52.329C142.628 55.1749 141.07 56.704 138.558 56.704C136.51 56.704 135.24 55.2603 134.716 54.0462L131.8 55.234C132.641 57.2071 134.866 59.6353 138.558 59.6353C142.489 59.6353 145.805 57.3778 145.805 51.8849V38.5193H142.628V39.7246ZM138.794 50.0212C136.483 50.0212 134.55 48.1334 134.55 45.5346C134.55 42.9118 136.483 40.9978 138.794 40.9978C141.07 40.9978 142.865 42.9118 142.865 45.5346C142.865 48.1334 141.07 50.0212 138.794 50.0212ZM182.497 30.6246H174.48V52.4996H177.823V44.2112H182.497C186.21 44.2112 189.851 41.5884 189.851 37.4168C189.851 33.2474 186.201 30.6246 182.497 30.6246ZM182.584 41.1684H177.823V33.6675H182.584C185.081 33.6675 186.506 35.6909 186.506 37.4168C186.506 39.1099 185.081 41.1684 182.584 41.1684ZM203.251 38.0249C200.835 38.0249 198.323 39.0662 197.29 41.374L200.257 42.5881C200.896 41.374 202.07 40.9803 203.311 40.9803C205.046 40.9803 206.805 41.9974 206.832 43.7934V44.0231C206.227 43.6818 204.931 43.1765 203.338 43.1765C200.143 43.1765 196.887 44.8937 196.887 48.0984C196.887 51.0296 199.504 52.9174 202.446 52.9174C204.696 52.9174 205.937 51.9265 206.717 50.7737H206.832V52.4646H210.06V44.0734C210.06 40.1949 207.094 38.0249 203.251 38.0249ZM202.847 50.0124C201.754 50.0124 200.23 49.4831 200.23 48.1596C200.23 46.4665 202.13 45.8168 203.775 45.8168C205.247 45.8168 205.937 46.134 206.832 46.5518C206.569 48.5774 204.783 50.0124 202.847 50.0124ZM221.824 38.504L217.981 47.9868H217.867L213.894 38.504H210.289L216.258 51.7559L212.852 59.1299H216.346L225.544 38.504H221.824ZM191.689 52.4996H195.041V30.6246H191.689V52.4996Z" fill="black"/>
<path d="M18.7058 13.1928C18.1792 13.731 17.8745 14.5688 17.8745 15.6538V54.355C17.8745 55.44 18.1792 56.2778 18.7058 56.816L18.8357 56.9341L41.0504 35.256V34.7441L18.8357 13.066L18.7058 13.1928Z" fill="url(#paint0_linear_1_30938)"/>
<path d="M48.4471 42.4854L41.0504 35.2557V34.7438L48.4561 27.5141L48.6219 27.6082L57.3921 32.4797C59.895 33.8622 59.895 36.1372 57.3921 37.5285L48.6219 42.3913L48.4471 42.4854Z" fill="url(#paint1_linear_1_30938)"/>
<path d="M48.6217 42.3913L41.0502 34.9998L18.7056 56.8157C19.5369 57.6688 20.8925 57.7716 22.4342 56.9185L48.6217 42.3913Z" fill="url(#paint2_linear_1_30938)"/>
<path d="M48.6217 27.6084L22.4342 13.0813C20.8925 12.2369 19.5369 12.3397 18.7056 13.1928L41.0502 35L48.6217 27.6084Z" fill="url(#paint3_linear_1_30938)"/>
</g>
<defs>
<linearGradient id="paint0_linear_1_30938" x1="39.078" y1="54.758" x2="9.71732" y2="24.6827" gradientUnits="userSpaceOnUse">
<stop stop-color="#00A0FF"/>
<stop offset="0.0066" stop-color="#00A1FF"/>
<stop offset="0.2601" stop-color="#00BEFF"/>
<stop offset="0.5122" stop-color="#00D2FF"/>
<stop offset="0.7604" stop-color="#00DFFF"/>
<stop offset="1" stop-color="#00E3FF"/>
</linearGradient>
<linearGradient id="paint1_linear_1_30938" x1="60.6513" y1="34.9973" x2="17.2762" y2="34.9973" gradientUnits="userSpaceOnUse">
<stop stop-color="#FFE000"/>
<stop offset="0.4087" stop-color="#FFBD00"/>
<stop offset="0.7754" stop-color="#FFA500"/>
<stop offset="1" stop-color="#FF9C00"/>
</linearGradient>
<linearGradient id="paint2_linear_1_30938" x1="44.5046" y1="30.9816" x2="4.68905" y2="-9.80296" gradientUnits="userSpaceOnUse">
<stop stop-color="#FF3A44"/>
<stop offset="1" stop-color="#C31162"/>
</linearGradient>
<linearGradient id="paint3_linear_1_30938" x1="13.0809" y1="69.6917" x2="30.8604" y2="51.4797" gradientUnits="userSpaceOnUse">
<stop stop-color="#32A071"/>
<stop offset="0.0685" stop-color="#2DA771"/>
<stop offset="0.4762" stop-color="#15CF74"/>
<stop offset="0.8009" stop-color="#06E775"/>
<stop offset="1" stop-color="#00F076"/>
</linearGradient>
<clipPath id="clip0_1_30938">
<rect width="242" height="70" rx="10" fill="white"/>
</clipPath>
</defs>
</svg>
