<svg class="{{ .class }}" viewBox="0 0 60 61" fill="none" xmlns="http://www.w3.org/2000/svg">
<rect y="0.5" width="60" height="60" rx="7" fill="#5238C0"/>
<path d="M29.9972 13.8334C25.248 13.8334 22.1687 17.1984 18.5269 18.4249C17.0461 18.9236 16.3057 19.1729 16.0061 19.5245C15.7065 19.876 15.6187 20.3896 15.4432 21.4169C13.5654 32.41 17.6698 42.5734 27.4583 46.5292C28.51 46.9542 29.036 47.1667 30.0023 47.1667C30.9687 47.1667 31.4945 46.9542 32.5462 46.5292C42.3342 42.5732 46.4347 32.41 44.5563 21.4169C44.3807 20.3894 44.293 19.8757 43.9932 19.5242C43.6935 19.1727 42.9532 18.9235 41.4725 18.425C37.8293 17.1986 34.7465 13.8334 29.9972 13.8334Z" stroke="#E8E5F4" stroke-width="2" stroke-linecap="round" stroke-linejoin="round"/>
<path d="M27.4165 21.335V24.6333M21.6049 27.169H25.0248M34.9767 27.169H38.3965M34.9767 32.1243H38.3965M21.6049 32.1243H25.0248M27.4165 34.7003V37.9987M32.459 34.7003V37.9987M32.441 21.335V24.6333M26.6915 34.6142H33.31C34.2304 34.6142 34.9767 33.868 34.9767 32.9475V26.3C34.9767 25.3795 34.2304 24.6333 33.31 24.6333H26.6915C25.771 24.6333 25.0248 25.3795 25.0248 26.3V32.9475C25.0248 33.868 25.771 34.6142 26.6915 34.6142Z" stroke="#E8E5F4" stroke-width="2" stroke-linecap="round"/>
</svg>
