<svg class="{{ .class }}" viewBox="0 0 60 61" fill="none" xmlns="http://www.w3.org/2000/svg">
<rect y="0.5" width="60" height="60" rx="7" fill="#5238C0"/>
<path d="M46.6666 30.5C46.6666 21.2953 39.2046 13.8334 30 13.8334C20.7952 13.8334 13.3333 21.2953 13.3333 30.5C13.3333 39.7047 20.7952 47.1667 30 47.1667C31.4028 47.1667 33.3333 47.3605 33.3333 45.5C33.3333 44.485 32.8053 43.702 32.281 42.924C31.5136 41.7859 30.7538 40.6589 31.6666 38.8334C32.7778 36.6112 34.6296 36.6112 37.4691 36.6112C38.889 36.6112 40.5556 36.6112 42.5 36.3334C46.0016 35.8332 46.6666 33.6807 46.6666 30.5Z" stroke="#E8E5F4" stroke-width="2"/>
<path d="M21.6667 35.504L21.6812 35.5001" stroke="#E8E5F4" stroke-width="2.5" stroke-linecap="round" stroke-linejoin="round"/>
<path d="M25.8333 27.1666C27.214 27.1666 28.3333 26.0473 28.3333 24.6666C28.3333 23.2859 27.214 22.1666 25.8333 22.1666C24.4526 22.1666 23.3333 23.2859 23.3333 24.6666C23.3333 26.0473 24.4526 27.1666 25.8333 27.1666Z" stroke="#E8E5F4" stroke-width="2"/>
<path d="M37.5 28.8334C38.8807 28.8334 40 27.7141 40 26.3334C40 24.9527 38.8807 23.8334 37.5 23.8334C36.1193 23.8334 35 24.9527 35 26.3334C35 27.7141 36.1193 28.8334 37.5 28.8334Z" stroke="#E8E5F4" stroke-width="2"/>
</svg>
