<svg class="{{ .class }}" viewBox="0 0 60 61" fill="none" xmlns="http://www.w3.org/2000/svg">
<rect y="0.5" width="60" height="60" rx="7" fill="#5238C0"/>
<path d="M24.1667 38C25.3311 35.9872 27.5074 34.6329 30 34.6329C32.4927 34.6329 34.669 35.9872 35.8334 38M33.3334 27.1667C33.3334 29.0077 31.841 30.5 30 30.5C28.1592 30.5 26.6667 29.0077 26.6667 27.1667C26.6667 25.3258 28.1592 23.8334 30 23.8334C31.841 23.8334 33.3334 25.3258 33.3334 27.1667Z" stroke="#E8E5F4" stroke-width="2" stroke-linecap="round"/>
<path d="M46.6666 33.7781V27.222C41.9055 27.222 38.8095 22.0506 41.22 17.9448L35.4465 14.6668C33.0063 18.8234 26.9963 18.8232 24.556 14.6666L18.7825 17.9446C21.1931 22.0505 18.0945 27.222 13.3333 27.222V33.7781C18.0944 33.7781 21.1904 38.9495 18.7799 43.0553L24.5534 46.3333C26.9948 42.1746 33.0076 42.1745 35.4491 46.3331L41.2226 43.0551C38.8123 38.9493 41.9056 33.7781 46.6666 33.7781Z" stroke="#E8E5F4" stroke-width="2" stroke-linecap="round" stroke-linejoin="round"/>
</svg>
