<svg class="{{ .class }}" viewBox="0 0 60 61" fill="none" xmlns="http://www.w3.org/2000/svg">
<rect y="0.5" width="60" height="60" rx="7" fill="#5238C0"/>
<path d="M38.3334 30.1741C38.3334 29.598 38.3334 29.31 38.42 29.0533C38.672 28.3073 39.3364 28.018 40.0019 27.7148C40.75 27.374 41.124 27.2036 41.4947 27.1736C41.9155 27.1396 42.337 27.2303 42.6967 27.4321C43.1735 27.6996 43.506 28.2081 43.8465 28.6216C45.4189 30.5313 46.2049 31.4863 46.4925 32.5393C46.7247 33.389 46.7247 34.2776 46.4925 35.1273C46.073 36.6631 44.7475 37.9506 43.7664 39.1423C43.2645 39.7518 43.0135 40.0566 42.6967 40.2345C42.337 40.4363 41.9155 40.527 41.4947 40.493C41.124 40.463 40.75 40.2926 40.0019 39.9518C39.3364 39.6486 38.672 39.3593 38.42 38.6133C38.3334 38.3566 38.3334 38.0686 38.3334 37.4925V30.1741Z" stroke="#E8E5F4" stroke-width="2"/>
<path d="M21.6667 30.1744C21.6667 29.449 21.6463 28.797 21.0599 28.287C20.8466 28.1015 20.5638 27.9727 19.9982 27.715C19.2501 27.3744 18.876 27.204 18.5053 27.174C17.3932 27.084 16.7949 27.843 16.1536 28.622C14.5813 30.5317 13.7951 31.4865 13.5075 32.5395C13.2753 33.3894 13.2753 34.278 13.5075 35.1277C13.927 36.6635 15.2526 37.9509 16.2337 39.1427C16.8522 39.8939 17.443 40.5792 18.5053 40.4934C18.876 40.4634 19.2501 40.2929 19.9982 39.9522C20.5638 39.6945 20.8466 39.5657 21.0599 39.3802C21.6463 38.8702 21.6667 38.2184 21.6667 37.4929V30.1744Z" stroke="#E8E5F4" stroke-width="2"/>
<path d="M43.3333 28V25.5C43.3333 19.0567 37.3638 13.8334 30 13.8334C22.6362 13.8334 16.6666 19.0567 16.6666 25.5V28" stroke="#E8E5F4" stroke-width="2" stroke-linecap="round" stroke-linejoin="round"/>
<path d="M43.3333 39.6666C43.3333 47.1666 36.6667 47.1666 30 47.1666" stroke="#E8E5F4" stroke-width="2" stroke-linecap="round" stroke-linejoin="round"/>
</svg>
