<svg class="{{ .class }}" viewBox="0 0 286 133" fill="none" xmlns="http://www.w3.org/2000/svg">
<path d="M12.0726 65.5217C12.082 55.6975 14.3589 45.9201 18.8097 37.1428C23.1012 28.6834 29.2949 21.1867 36.8472 15.4193C44.5494 9.53039 53.5447 5.46424 63.0553 3.5854C72.8565 1.65048 83.1167 2.08046 92.7211 4.80992C101.913 7.41786 110.468 12.1383 117.571 18.5133C124.626 24.8415 130.295 32.7495 133.893 41.5174C137.679 50.7527 139.206 60.7919 138.41 70.7376C137.632 80.4309 134.54 89.8906 129.489 98.2005C124.561 106.305 117.805 113.278 109.831 118.447C101.698 123.719 92.3557 127.131 82.7045 128.225C80.2589 128.505 77.8039 128.636 75.3396 128.636C73.831 128.636 73.831 130.973 75.3396 130.973C85.6092 130.954 95.8039 128.561 104.968 123.934C113.776 119.494 121.487 113.035 127.484 105.239C133.528 97.3779 137.744 88.1239 139.675 78.4025C141.699 68.2138 141.305 57.5577 138.447 47.5652C135.721 38.0308 130.792 29.1881 124.167 21.8036C117.552 14.4378 109.269 8.65173 100.095 4.89405C90.6128 1.0055 80.1652 -0.564874 69.933 0.285746C59.8695 1.11767 50.0496 4.26777 41.401 9.493C32.9492 14.5967 25.7061 21.6167 20.3089 29.8705C14.7899 38.3112 11.3324 47.9952 10.1611 57.997C9.87062 60.4928 9.73007 63.0072 9.7207 65.5217C9.73007 67.0267 12.0726 67.0267 12.0726 65.5217Z" fill="white"/>
<path d="M75.3585 9.31592C44.2403 9.31592 19.0254 34.4793 19.0254 65.5129C19.0254 83.6376 27.6271 99.762 40.9889 110.044L38.3747 122.86C37.6344 126.505 41.1576 129.562 44.6714 128.328L64.9951 121.196C65.2481 121.112 65.4824 121.009 65.6979 120.887C68.8369 121.429 72.0696 121.71 75.3678 121.71C106.486 121.71 131.701 96.5465 131.701 65.5129C131.701 34.4793 106.467 9.31592 75.3585 9.31592Z" fill="currentcolor"/>
<path d="M12.5466 76.0188C5.62206 76.0188 0 70.4197 0 63.5026C0 56.5855 5.62206 50.9863 12.5466 50.9863C14.2894 50.9863 15.7043 52.3978 15.7043 54.1364V72.8688C15.7137 74.6074 14.2988 76.0188 12.5466 76.0188Z" fill="white"/>
<path d="M138.148 76.0188C145.082 76.0188 150.695 70.4104 150.695 63.5026C150.695 56.5855 145.072 50.9863 138.148 50.9863C136.405 50.9863 134.99 52.3978 134.99 54.1364V72.8688C134.99 74.6074 136.405 76.0188 138.148 76.0188Z" fill="white"/>
<path d="M74.3435 132.832C77.0552 132.832 79.2535 131.476 79.2535 129.803C79.2535 128.131 77.0552 126.775 74.3435 126.775C71.6318 126.775 69.4336 128.131 69.4336 129.803C69.4336 131.476 71.6318 132.832 74.3435 132.832Z" fill="white"/>
<path d="M85.6905 94.4983C84.1163 94.4889 82.6452 94.087 81.324 93.3018C79.272 92.096 77.2199 90.8341 75.2147 89.5628C65.5354 83.4029 57.2335 74.9995 51.2085 65.2501C49.9623 63.231 48.7254 61.1652 47.5542 59.0994C45.1554 54.9211 46.6359 49.4248 50.993 46.3121L56.4277 42.3768C56.4652 42.3488 56.5026 42.3301 56.5307 42.3301C59.6604 46.7234 63.0242 51.0326 66.5099 55.1268C66.5005 55.1548 66.4724 55.2015 66.4256 55.2389L64.6546 56.7813C62.3215 58.8003 60.663 62.6702 61.9186 65.2033C63.3709 68.1478 65.2731 70.8118 67.5594 73.13C69.8457 75.4482 72.4974 77.3831 75.4209 78.8787C76.0112 79.1778 76.6952 79.3367 77.4542 79.3461C79.6187 79.3647 82.2704 78.1028 83.9102 76.2801L85.4844 74.5321C85.5312 74.4854 85.5687 74.4573 85.5968 74.448C89.6541 77.9907 93.9175 81.4118 98.2746 84.5993C98.2652 84.6274 98.2558 84.6648 98.2183 84.7022L94.1986 90.0583C92.1184 92.8625 88.9419 94.517 85.6905 94.4983Z" fill="white"/>
<path d="M106.19 65.8109C105.74 62.9506 104.934 60.1557 103.81 57.4823C103.182 55.9961 102.489 54.5379 101.683 53.1358C100.943 51.8458 100.118 50.6119 99.2281 49.4248C97.2978 46.873 95.1052 44.5361 92.6034 42.5357C90.1578 40.5821 87.5154 38.8996 84.6575 37.6003C81.884 36.3384 78.9886 35.3849 75.9902 34.8241C75.6435 34.7586 75.2968 34.7026 74.9501 34.6465C74.6878 34.5623 74.4254 34.553 74.163 34.6091C73.9007 34.6184 73.657 34.7026 73.4322 34.8428C73.0199 35.0765 72.6357 35.5438 72.5326 36.0112C72.4202 36.516 72.4389 37.0768 72.7294 37.5255C72.9918 37.9274 73.4134 38.3481 73.9007 38.4228C76.1307 38.778 78.3234 39.3296 80.441 40.096C81.0501 40.311 81.6497 40.5447 82.2401 40.7971C82.0808 40.7317 81.9308 40.6662 81.7716 40.6008C83.9735 41.5262 86.0912 42.6759 88.0589 44.0313C88.6305 44.4239 89.1833 44.8259 89.7361 45.2465C89.605 45.1437 89.4738 45.0409 89.3426 44.938C91.2447 46.4056 93.0063 48.0694 94.5805 49.8828C95.0209 50.3876 95.4425 50.9111 95.8548 51.4439C95.7518 51.313 95.6487 51.1821 95.5456 51.0513C97.0167 52.9582 98.3004 55.0053 99.3686 57.1645C99.6685 57.7628 99.9402 58.3797 100.203 58.9966C100.137 58.8377 100.071 58.6882 100.006 58.5292C100.887 60.6137 101.561 62.773 102.039 64.979C102.17 65.6053 102.292 66.2316 102.386 66.8578C102.442 67.1102 102.564 67.3346 102.742 67.5215C102.882 67.7365 103.06 67.9048 103.295 68.0263C103.716 68.2693 104.335 68.3721 104.813 68.2226C105.291 68.073 105.75 67.7739 105.984 67.3252C106.05 67.1663 106.115 67.0167 106.181 66.8578C106.284 66.5026 106.284 66.1568 106.19 65.8109Z" fill="white"/>
<path d="M97.3193 67.213C96.982 65.0724 96.3823 62.9692 95.539 60.9689C95.0518 59.8098 94.527 58.6881 93.8992 57.5944C93.3464 56.6316 92.728 55.6969 92.0627 54.8089C91.2756 53.762 90.451 52.7618 89.5328 51.827C88.7363 51.0045 87.8836 50.238 86.9935 49.5276C86.0002 48.733 84.9695 47.9852 83.8826 47.3216C82.9456 46.7514 81.9711 46.2279 80.9685 45.7792C78.8415 44.8164 76.6208 44.0686 74.3251 43.6387C74.0627 43.5919 73.8097 43.5452 73.5474 43.5078C73.285 43.4237 73.0226 43.4143 72.7603 43.4704C72.4979 43.4798 72.2543 43.5639 72.0294 43.7041C71.8045 43.8256 71.6171 43.9939 71.4766 44.2089C71.2985 44.3958 71.1861 44.6201 71.1205 44.8725C71.0081 45.3773 71.0268 45.9381 71.3173 46.3868C71.4204 46.5177 71.5234 46.6485 71.6265 46.7794C71.8701 47.0224 72.1606 47.1907 72.4979 47.2842C74.1752 47.5459 75.8149 47.9665 77.4079 48.5367C77.8576 48.6956 78.3074 48.8732 78.7478 49.0602C78.5885 48.9948 78.4386 48.9293 78.2793 48.8639C79.9284 49.5556 81.512 50.4156 82.9924 51.4251C83.4235 51.7149 83.8451 52.0233 84.2574 52.3412C84.1262 52.2383 83.995 52.1355 83.8639 52.0327C85.2881 53.1357 86.6093 54.3789 87.7899 55.7343C88.1179 56.1175 88.4458 56.5101 88.7551 56.9121C88.652 56.7812 88.5489 56.6503 88.4458 56.5195C89.5515 57.9496 90.5073 59.4826 91.3037 61.0997C91.5286 61.5578 91.7347 62.0158 91.9315 62.4832C91.8659 62.3243 91.8003 62.1747 91.7348 62.0158C92.3907 63.5768 92.906 65.2033 93.2527 66.8578C93.3558 67.3251 93.4401 67.7832 93.5151 68.2599C93.5713 68.5123 93.6931 68.7366 93.8711 68.9236C94.0117 69.1386 94.1897 69.3068 94.424 69.4283C94.6489 69.5685 94.8925 69.6527 95.1548 69.662C95.4172 69.7181 95.6796 69.7087 95.9419 69.6246C96.4198 69.4751 96.8789 69.1759 97.1132 68.7273C97.1788 68.5684 97.2444 68.4188 97.31 68.2599C97.413 67.9047 97.413 67.5588 97.3193 67.213Z" fill="white"/>
<path d="M267.712 71.8928H139.361C139.567 69.799 139.67 67.6771 139.67 65.5272C139.67 46.3649 131.265 29.1562 117.932 17.3784H241.11L267.712 71.8928Z" fill="currentcolor"/>
<path d="M207.377 62.2723C205.002 62.2723 202.842 61.8435 200.895 60.9858C198.982 60.1281 197.448 58.9241 196.294 57.3738C195.172 55.8234 194.611 54.0091 194.611 51.931C194.611 50.5455 194.842 49.2755 195.304 48.121C195.799 46.9335 196.475 45.9109 197.333 45.0532C198.19 44.1626 199.196 43.4864 200.351 43.0245C198.9 42.2988 197.712 41.3092 196.788 40.0557C195.898 38.7693 195.452 37.3178 195.452 35.7015C195.452 34.0852 195.898 32.5843 196.788 31.1988C197.712 29.7804 199.048 28.6423 200.796 27.7847C202.578 26.894 204.771 26.4487 207.377 26.4487C210.016 26.4487 212.21 26.894 213.958 27.7847C215.739 28.6423 217.075 29.7804 217.966 31.1988C218.857 32.5843 219.302 34.0852 219.302 35.7015C219.302 37.2849 218.84 38.7363 217.916 40.0557C217.026 41.3422 215.855 42.3318 214.403 43.0245C215.591 43.5193 216.613 44.2121 217.471 45.1027C218.329 45.9604 218.988 46.9665 219.45 48.121C219.945 49.2755 220.193 50.5455 220.193 51.931C220.193 54.0091 219.615 55.8234 218.461 57.3738C217.306 58.9241 215.772 60.1281 213.859 60.9858C211.946 61.8435 209.785 62.2723 207.377 62.2723ZM207.377 56.5326C209.356 56.5326 210.841 56.0378 211.83 55.0482C212.853 54.0586 213.364 52.8216 213.364 51.3372C213.364 49.7208 212.836 48.4509 211.781 47.5272C210.725 46.5706 209.257 46.0923 207.377 46.0923C205.497 46.0923 204.013 46.5706 202.924 47.5272C201.868 48.4509 201.341 49.7208 201.341 51.3372C201.341 52.8216 201.852 54.0586 202.874 55.0482C203.93 56.0378 205.431 56.5326 207.377 56.5326ZM207.377 41.0453C208.994 41.0453 210.247 40.633 211.138 39.8083C212.061 38.9507 212.523 37.8786 212.523 36.5921C212.523 35.1737 212.078 34.0687 211.187 33.277C210.296 32.4523 209.027 32.04 207.377 32.04C205.761 32.04 204.507 32.4523 203.617 33.277C202.759 34.0687 202.33 35.1737 202.33 36.5921C202.33 37.8786 202.759 38.9507 203.617 39.8083C204.507 40.633 205.761 41.0453 207.377 41.0453Z" fill="white"/>
<path d="M181.146 61.678V35.0083L174.961 36.6411V31.0994L184.115 27.042H188.271V61.678H181.146Z" fill="white"/>
<path d="M162.882 61.678V35.0083L156.697 36.6411V31.0994L165.851 27.042H170.007V61.678H162.882Z" fill="white"/>
<path d="M286.002 71.8066L268.845 106.962H124.561C132.778 97.2785 138.175 85.1455 139.487 71.8066H286.002Z" fill="white"/>
<path d="M251.482 96.552V81.9536H261.076V84.2268H254.298V88.0432H260.45V90.233H254.298V94.2788H261.076V96.552H251.482Z" fill="black"/>
<path d="M231.285 96.552V81.9536H234.101L240.816 92.0265V81.9536H243.631V96.552H240.816L234.101 86.5V96.552H231.285Z" fill="black"/>
<path d="M220.6 96.552V81.9536H223.415V96.552H220.6Z" fill="black"/>
<path d="M203.961 96.552V81.9536H206.776V94.3622H213.179V96.552H203.961Z" fill="black"/>
<path d="M189.91 96.552V84.2268H185.635V81.9536H196.959V84.2268H192.705V96.552H189.91Z" fill="black"/>
<path d="M172.378 96.8011C170.96 96.8011 169.708 96.4813 168.624 95.8417C167.54 95.2022 166.691 94.3193 166.08 93.1932C165.468 92.0531 165.162 90.7392 165.162 89.2516C165.162 87.764 165.468 86.4571 166.08 85.3309C166.691 84.1908 167.54 83.301 168.624 82.6615C169.708 82.0219 170.96 81.7021 172.378 81.7021C173.81 81.7021 175.068 82.0219 176.153 82.6615C177.237 83.301 178.078 84.1908 178.676 85.3309C179.288 86.4571 179.594 87.764 179.594 89.2516C179.594 90.7392 179.288 92.0531 178.676 93.1932C178.078 94.3193 177.237 95.2022 176.153 95.8417C175.068 96.4813 173.81 96.8011 172.378 96.8011ZM172.378 94.2776C173.268 94.2776 174.032 94.076 174.672 93.6728C175.325 93.2557 175.833 92.6718 176.194 91.921C176.556 91.1702 176.737 90.2804 176.737 89.2516C176.737 88.2089 176.556 87.3191 176.194 86.5822C175.833 85.8314 175.325 85.2544 174.672 84.8512C174.032 84.448 173.268 84.2464 172.378 84.2464C171.502 84.2464 170.737 84.448 170.084 84.8512C169.43 85.2544 168.923 85.8314 168.561 86.5822C168.2 87.3191 168.019 88.2089 168.019 89.2516C168.019 90.2804 168.2 91.1702 168.561 91.921C168.923 92.6718 169.43 93.2557 170.084 93.6728C170.737 94.076 171.502 94.2776 172.378 94.2776Z" fill="black"/>
<path d="M154.947 96.552V81.9536H157.762V96.552H154.947ZM145.75 96.552V81.9536H148.565V96.552H145.75ZM148.169 90.233V87.9598H155.427V90.233H148.169Z" fill="black"/>
</svg>
