<svg class="{{ .class }}" viewBox="0 0 49 49" fill="none" xmlns="http://www.w3.org/2000/svg">
<rect x="1" y="1.16113" width="47" height="47" rx="23.5" fill="white"/>
<rect x="1" y="1.16113" width="47" height="47" rx="23.5" stroke="#6B7280"/>
<path d="M27.7326 33.1913C27.3026 33.1912 26.8902 33.0116 26.5861 32.692L20.0998 25.876C19.7958 25.5565 19.625 25.1231 19.625 24.6713C19.625 24.2195 19.7958 23.7861 20.0998 23.4666L26.5861 16.6506C26.7357 16.4878 26.9146 16.358 27.1125 16.2687C27.3103 16.1794 27.5231 16.1324 27.7384 16.1304C27.9537 16.1285 28.1673 16.1716 28.3666 16.2573C28.5658 16.3429 28.7469 16.4695 28.8992 16.6295C29.0514 16.7895 29.1718 16.9797 29.2533 17.1891C29.3349 17.3985 29.3759 17.6229 29.374 17.8492C29.3722 18.0754 29.3274 18.299 29.2425 18.5069C29.1575 18.7148 29.0339 18.9028 28.8791 19.06L23.5392 24.6713L28.8791 30.2826C29.1058 30.5209 29.2601 30.8245 29.3227 31.155C29.3852 31.4855 29.3531 31.828 29.2304 32.1393C29.1077 32.4507 28.8999 32.7168 28.6333 32.904C28.3667 33.0913 28.0533 33.1912 27.7326 33.1913Z" fill="#6B7280"/>
</svg>
