<svg width="34" height="24" viewBox="0 0 34 24" fill="none" xmlns="http://www.w3.org/2000/svg">
<path d="M13.9827 16.9953L22.5091 12.0668L13.9827 7.1382V16.9953ZM32.9741 4.13177C33.1877 4.90392 33.3356 5.93891 33.4341 7.2532C33.5491 8.56749 33.5984 9.70106 33.5984 10.6868L33.697 12.0668C33.697 15.6646 33.4341 18.3096 32.9741 20.0018C32.5634 21.4803 31.6106 22.4332 30.132 22.8439C29.3598 23.0575 27.947 23.2053 25.7784 23.3039C23.6427 23.4189 21.6877 23.4682 19.8806 23.4682L17.2684 23.5668C10.3848 23.5668 6.09699 23.3039 4.40484 22.8439C2.92627 22.4332 1.97342 21.4803 1.5627 20.0018C1.34913 19.2296 1.20127 18.1946 1.1027 16.8803C0.987701 15.5661 0.938415 14.4325 0.938415 13.4468L0.839844 12.0668C0.839844 8.46892 1.1027 5.82392 1.5627 4.13177C1.97342 2.6532 2.92627 1.70034 4.40484 1.28963C5.17699 1.07606 6.58984 0.928201 8.75841 0.829629C10.8941 0.714629 12.8491 0.665344 14.6563 0.665344L17.2684 0.566772C24.152 0.566772 28.4398 0.82963 30.132 1.28963C31.6106 1.70034 32.5634 2.6532 32.9741 4.13177Z" fill="#4B5563"/>
</svg>
