<svg class="{{ .class }}" viewBox="0 0 25 24" fill="none" xmlns="http://www.w3.org/2000/svg">
<mask id="mask0_7_339" style="mask-type:alpha" maskUnits="userSpaceOnUse" x="0" y="0" width="25" height="24">
<rect x="0.796875" width="24" height="24" fill="currentColor"/>
</mask>
<g mask="url(#mask0_7_339)">
<path d="M4.79688 20C4.24688 20 3.77604 19.8042 3.38438 19.4125C2.99271 19.0208 2.79688 18.55 2.79688 18V6C2.79688 5.45 2.99271 4.97917 3.38438 4.5875C3.77604 4.19583 4.24688 4 4.79688 4H20.7969C21.3469 4 21.8177 4.19583 22.2094 4.5875C22.601 4.97917 22.7969 5.45 22.7969 6V18C22.7969 18.55 22.601 19.0208 22.2094 19.4125C21.8177 19.8042 21.3469 20 20.7969 20H4.79688ZM12.7969 13L20.7969 8V6L12.7969 11L4.79688 6V8L12.7969 13Z" fill="currentColor"/>
</g>
</svg>
