<svg class="{{ .class }}" viewBox="0 0 23 24" fill="none" xmlns="http://www.w3.org/2000/svg">
<path d="M20.2925 16.7044C18.8426 15.4643 17.3712 14.7132 15.9392 15.9513L15.084 16.6997C14.4584 17.2429 13.2951 19.7811 8.7976 14.6073C4.30099 9.44011 6.97685 8.63557 7.60343 8.09702L8.46323 7.34775C9.8878 6.10675 9.35019 4.54451 8.32274 2.93637L7.70271 1.96231C6.67058 0.357917 5.54667 -0.695756 4.11835 0.543363L3.3466 1.21771C2.71533 1.67758 0.95078 3.17239 0.522755 6.01216C0.007626 9.4195 1.63262 13.3214 5.3556 17.6026C9.07389 21.8856 12.7144 24.037 16.163 23.9995C19.029 23.9686 20.7598 22.4307 21.3012 21.8716L22.0757 21.1963C23.5003 19.9581 22.6152 18.6974 21.1644 17.4546L20.2925 16.7044Z" fill="currentColor"/>
</svg>
