<svg class="{{ .class }}" viewBox="0 0 49 49" fill="none" xmlns="http://www.w3.org/2000/svg">
<rect x="1" y="1.16113" width="47" height="47" rx="23.5" fill="white"/>
<rect x="1" y="1.16113" width="47" height="47" rx="23.5" stroke="#6B7280"/>
<path d="M21.2665 33.1913C20.9458 33.1912 20.6324 33.0913 20.3658 32.904C20.0992 32.7168 19.8914 32.4507 19.7687 32.1393C19.646 31.828 19.6139 31.4855 19.6764 31.155C19.739 30.8245 19.8933 30.5209 20.1201 30.2826L25.4599 24.6713L20.1201 19.06C19.9652 18.9028 19.8416 18.7148 19.7567 18.5069C19.6717 18.299 19.6269 18.0754 19.6251 17.8492C19.6232 17.6229 19.6642 17.3985 19.7458 17.1891C19.8273 16.9797 19.9477 16.7895 20.1 16.6295C20.2522 16.4695 20.4333 16.3429 20.6325 16.2573C20.8318 16.1716 21.0454 16.1285 21.2607 16.1304C21.476 16.1324 21.6888 16.1794 21.8866 16.2687C22.0845 16.358 22.2634 16.4878 22.413 16.6506L28.8993 23.4666C29.2033 23.7861 29.3741 24.2195 29.3741 24.6713C29.3741 25.1231 29.2033 25.5565 28.8993 25.876L22.413 32.692C22.1089 33.0116 21.6966 33.1912 21.2665 33.1913Z" fill="#6B7280"/>
</svg>
