<svg width="24" height="24" viewBox="0 0 24 24" fill="none" xmlns="http://www.w3.org/2000/svg">
<path d="M7.50984 0.566772H17.1698C20.8498 0.566772 23.8398 3.55677 23.8398 7.23677V16.8968C23.8398 18.6658 23.1371 20.3623 21.8862 21.6132C20.6354 22.864 18.9388 23.5668 17.1698 23.5668H7.50984C3.82984 23.5668 0.839844 20.5768 0.839844 16.8968V7.23677C0.839844 5.46778 1.54257 3.77124 2.79344 2.52037C4.04431 1.2695 5.74085 0.566772 7.50984 0.566772ZM7.27984 2.86677C6.18185 2.86677 5.12882 3.30295 4.35242 4.07935C3.57602 4.85575 3.13984 5.90878 3.13984 7.00677V17.1268C3.13984 19.4153 4.99134 21.2668 7.27984 21.2668H17.3998C18.4978 21.2668 19.5509 20.8306 20.3273 20.0542C21.1037 19.2778 21.5398 18.2248 21.5398 17.1268V7.00677C21.5398 4.71827 19.6883 2.86677 17.3998 2.86677H7.27984ZM18.3773 4.59177C18.7586 4.59177 19.1242 4.74322 19.3938 5.01281C19.6634 5.28239 19.8148 5.64802 19.8148 6.02927C19.8148 6.41052 19.6634 6.77615 19.3938 7.04574C19.1242 7.31532 18.7586 7.46677 18.3773 7.46677C17.9961 7.46677 17.6305 7.31532 17.3609 7.04574C17.0913 6.77615 16.9398 6.41052 16.9398 6.02927C16.9398 5.64802 17.0913 5.28239 17.3609 5.01281C17.6305 4.74322 17.9961 4.59177 18.3773 4.59177ZM12.3398 6.31677C13.8648 6.31677 15.3274 6.92257 16.4057 8.00091C17.484 9.07924 18.0898 10.5418 18.0898 12.0668C18.0898 13.5918 17.484 15.0543 16.4057 16.1326C15.3274 17.211 13.8648 17.8168 12.3398 17.8168C10.8148 17.8168 9.35231 17.211 8.27398 16.1326C7.19565 15.0543 6.58984 13.5918 6.58984 12.0668C6.58984 10.5418 7.19565 9.07924 8.27398 8.00091C9.35231 6.92257 10.8148 6.31677 12.3398 6.31677ZM12.3398 8.61677C11.4248 8.61677 10.5473 8.98025 9.90032 9.62725C9.25332 10.2743 8.88984 11.1518 8.88984 12.0668C8.88984 12.9818 9.25332 13.8593 9.90032 14.5063C10.5473 15.1533 11.4248 15.5168 12.3398 15.5168C13.2548 15.5168 14.1324 15.1533 14.7794 14.5063C15.4264 13.8593 15.7898 12.9818 15.7898 12.0668C15.7898 11.1518 15.4264 10.2743 14.7794 9.62725C14.1324 8.98025 13.2548 8.61677 12.3398 8.61677Z" fill="#4B5563"/>
</svg>
