<svg class="{{ .class }}" viewBox="0 0 25 24" fill="none" xmlns="http://www.w3.org/2000/svg">
<mask id="mask0_7_334" style="mask-type:alpha" maskUnits="userSpaceOnUse" x="0" y="0" width="25" height="24">
<rect x="0.796875" width="24" height="24" fill="currentColor"/>
</mask>
<g mask="url(#mask0_7_334)">
<path d="M12.7969 12C13.3469 12 13.8177 11.8042 14.2094 11.4125C14.601 11.0208 14.7969 10.55 14.7969 10C14.7969 9.45 14.601 8.97917 14.2094 8.5875C13.8177 8.19583 13.3469 8 12.7969 8C12.2469 8 11.776 8.19583 11.3844 8.5875C10.9927 8.97917 10.7969 9.45 10.7969 10C10.7969 10.55 10.9927 11.0208 11.3844 11.4125C11.776 11.8042 12.2469 12 12.7969 12ZM12.7969 22C10.1135 19.7167 8.10938 17.5958 6.78438 15.6375C5.45938 13.6792 4.79688 11.8667 4.79688 10.2C4.79688 7.7 5.60104 5.70833 7.20938 4.225C8.81771 2.74167 10.6802 2 12.7969 2C14.9135 2 16.776 2.74167 18.3844 4.225C19.9927 5.70833 20.7969 7.7 20.7969 10.2C20.7969 11.8667 20.1344 13.6792 18.8094 15.6375C17.4844 17.5958 15.4802 19.7167 12.7969 22Z" fill="currentColor"/>
</g>
</svg>
