<svg width="29" height="24" viewBox="0 0 29 24" fill="none" xmlns="http://www.w3.org/2000/svg">
<path d="M29.0008 3.27265C27.959 3.74618 26.8361 4.05736 25.6726 4.20618C26.8631 3.48913 27.7831 2.35265 28.2161 0.986184C27.0931 1.66265 25.8484 2.13618 24.5361 2.40677C23.4673 1.24324 21.9655 0.566772 20.2608 0.566772C17.0814 0.566772 14.4837 3.16442 14.4837 6.37089C14.4837 6.83089 14.5379 7.27736 14.6326 7.69677C9.81609 7.45324 5.52727 5.13971 2.67256 1.6356C2.17197 2.48795 1.88785 3.48913 1.88785 4.54442C1.88785 6.5603 2.90256 8.34618 4.47197 9.36089C3.51138 9.36089 2.61844 9.0903 1.83374 8.68442V8.72501C1.83374 11.5391 3.83609 13.8932 6.48785 14.4209C5.63649 14.6539 4.74269 14.6863 3.87668 14.5156C4.24415 15.669 4.96382 16.6781 5.93452 17.4013C6.90523 18.1245 8.07817 18.5253 9.28844 18.5474C7.23688 20.1715 4.69385 21.0494 2.07727 21.0368C1.61727 21.0368 1.15727 21.0097 0.697266 20.9556C3.26785 22.6062 6.3255 23.5668 9.59962 23.5668C20.2608 23.5668 26.119 14.7185 26.119 7.04736C26.119 6.7903 26.119 6.54677 26.1055 6.28971C27.242 5.47795 28.2161 4.44971 29.0008 3.27265Z" fill="#4B5563"/>
</svg>
