<svg width="24" height="24" viewBox="0 0 24 24" fill="none" xmlns="http://www.w3.org/2000/svg">
<path d="M21.2843 0.566772C21.9621 0.566772 22.6121 0.836018 23.0913 1.31528C23.5706 1.79454 23.8398 2.44455 23.8398 3.12233V21.0112C23.8398 21.689 23.5706 22.339 23.0913 22.8183C22.6121 23.2975 21.9621 23.5668 21.2843 23.5668H3.3954C2.71762 23.5668 2.06761 23.2975 1.58835 22.8183C1.10909 22.339 0.839844 21.689 0.839844 21.0112V3.12233C0.839844 2.44455 1.10909 1.79454 1.58835 1.31528C2.06761 0.836018 2.71762 0.566772 3.3954 0.566772H21.2843ZM20.6454 20.3723V13.6001C20.6454 12.4953 20.2065 11.4358 19.4253 10.6546C18.6441 9.87342 17.5846 9.43455 16.4798 9.43455C15.3937 9.43455 14.1287 10.099 13.5154 11.0957V9.67733H9.9504V20.3723H13.5154V14.0729C13.5154 13.089 14.3076 12.284 15.2915 12.284C15.766 12.284 16.221 12.4725 16.5564 12.8079C16.8919 13.1434 17.0804 13.5984 17.0804 14.0729V20.3723H20.6454ZM5.79762 7.67122C6.36695 7.67122 6.91297 7.44505 7.31554 7.04247C7.71812 6.6399 7.94429 6.09388 7.94429 5.52455C7.94429 4.33622 6.98596 3.36511 5.79762 3.36511C5.2249 3.36511 4.67564 3.59262 4.27066 3.99759C3.86569 4.40257 3.63818 4.95183 3.63818 5.52455C3.63818 6.71288 4.60929 7.67122 5.79762 7.67122ZM7.57373 20.3723V9.67733H4.03429V20.3723H7.57373Z" fill="#4B5563"/>
</svg>
