<svg width="11" height="18" viewBox="0 0 11 18" fill="none" xmlns="http://www.w3.org/2000/svg">
<path d="M8.40446 17.7367C7.97443 17.7366 7.56204 17.557 7.258 17.2374L0.771654 10.4214C0.467653 10.1019 0.296875 9.66856 0.296875 9.21672C0.296875 8.76488 0.467653 8.33154 0.771654 8.01199L7.258 1.19599C7.40759 1.03324 7.58652 0.903429 7.78436 0.814124C7.9822 0.724819 8.19499 0.677812 8.4103 0.675846C8.62561 0.673879 8.83914 0.716993 9.03843 0.802672C9.23772 0.88835 9.41877 1.01488 9.57103 1.17487C9.72328 1.33486 9.84369 1.52512 9.92522 1.73453C10.0068 1.94395 10.0478 2.16833 10.0459 2.39459C10.044 2.62084 9.99931 2.84444 9.91433 3.05234C9.82934 3.26023 9.7058 3.44826 9.55093 3.60545L4.21104 9.21672L9.55093 14.828C9.77764 15.0663 9.93202 15.3699 9.99457 15.7004C10.0571 16.0309 10.025 16.3734 9.90229 16.6848C9.77958 16.9961 9.57179 17.2622 9.30519 17.4494C9.03858 17.6367 8.72513 17.7366 8.40446 17.7367Z" fill="#6B7280"/>
</svg>
