<svg width="11" height="18" viewBox="0 0 11 18" fill="none" xmlns="http://www.w3.org/2000/svg">
<path d="M2.57315 17.7367C2.25249 17.7366 1.93904 17.6367 1.67243 17.4494C1.40583 17.2622 1.19804 16.9961 1.07533 16.6848C0.952624 16.3734 0.920513 16.0309 0.983054 15.7004C1.04559 15.3699 1.19998 15.0663 1.42669 14.828L6.76658 9.21672L1.42669 3.60545C1.27182 3.44826 1.14828 3.26023 1.06329 3.05234C0.978306 2.84444 0.933573 2.62084 0.931702 2.39459C0.929831 2.16833 0.970861 1.94395 1.0524 1.73453C1.13393 1.52512 1.25434 1.33486 1.40659 1.17487C1.55885 1.01488 1.7399 0.88835 1.93919 0.802672C2.13848 0.716993 2.35201 0.673879 2.56732 0.675846C2.78263 0.677812 2.99542 0.724819 3.19326 0.814124C3.3911 0.903429 3.57003 1.03324 3.71962 1.19599L10.206 8.01199C10.51 8.33154 10.6807 8.76488 10.6807 9.21672C10.6807 9.66856 10.51 10.1019 10.206 10.4214L3.71962 17.2374C3.41558 17.557 3.00319 17.7366 2.57315 17.7367Z" fill="#6B7280"/>
</svg>
