<svg class="{{ .class }}" viewBox="0 0 48 48" fill="none" xmlns="http://www.w3.org/2000/svg">
<rect width="48" height="48" rx="24" fill="#F4EBFF"/>
<path d="M14 24.0001L23.6422 28.8212C23.7734 28.8868 23.839 28.9196 23.9078 28.9325C23.9687 28.9439 24.0313 28.9439 24.0922 28.9325C24.161 28.9196 24.2266 28.8868 24.3578 28.8212L34 24.0001M14 29.0001L23.6422 33.8212C23.7734 33.8868 23.839 33.9196 23.9078 33.9325C23.9687 33.9439 24.0313 33.9439 24.0922 33.9325C24.161 33.9196 24.2266 33.8868 24.3578 33.8212L34 29.0001M14 19.0001L23.6422 14.179C23.7734 14.1134 23.839 14.0806 23.9078 14.0677C23.9687 14.0562 24.0313 14.0562 24.0922 14.0677C24.161 14.0806 24.2266 14.1134 24.3578 14.179L34 19.0001L24.3578 23.8212C24.2266 23.8868 24.161 23.9196 24.0922 23.9325C24.0313 23.9439 23.9687 23.9439 23.9078 23.9325C23.839 23.9196 23.7734 23.8868 23.6422 23.8212L14 19.0001Z" stroke="#623DEA" stroke-width="2" stroke-linecap="round" stroke-linejoin="round"/>
</svg>
