<svg class="{{ .class }}" viewBox="0 0 40 31" fill="none" xmlns="http://www.w3.org/2000/svg">
<path d="M30.9086 18.0574C31.3533 18.0574 31.78 17.9893 32.2047 17.9271C32.0672 18.3923 31.9256 18.8654 31.6983 19.2905C31.4709 19.908 31.116 20.4433 30.763 20.9826C30.4679 21.566 29.9475 21.961 29.5646 22.4602C29.1638 22.9454 28.6174 23.2681 28.1847 23.6711C27.76 24.0922 27.2036 24.3027 26.761 24.5994C26.2983 24.866 25.8955 25.1608 25.4648 25.3011L24.39 25.7462L23.4448 26.1411L24.4119 30.0266L25.6024 29.7379C25.9833 29.6417 26.4479 29.5294 26.9763 29.3951C27.5167 29.2948 28.093 29.0202 28.7351 28.7695C29.3692 28.4849 30.103 28.2924 30.785 27.8353C31.4709 27.3982 32.2626 27.0333 32.9605 26.4479C33.6365 25.8444 34.4521 25.3211 35.0543 24.5533C35.7123 23.8355 36.3624 23.0817 36.8669 22.2236C37.4511 21.4056 37.848 20.5074 38.2667 19.6193C38.6456 18.7311 38.9507 17.8229 39.1999 16.9407C39.6725 15.1724 39.8839 13.4923 39.9656 12.0548C40.0334 10.6153 39.9936 9.4184 39.9098 8.55229C39.8799 8.14329 39.8241 7.74632 39.7842 7.47165L39.7343 7.13483L39.6825 7.14686C39.3278 5.48114 38.5114 3.95041 37.3276 2.73174C36.1438 1.51308 34.641 0.656265 32.9931 0.260433C31.3452 -0.135399 29.6196 -0.0540771 28.0157 0.494987C26.4119 1.04405 24.9954 2.03843 23.9302 3.36308C22.8649 4.68773 22.1945 6.28853 21.9963 7.9803C21.7981 9.67207 22.0804 11.3857 22.8104 12.9229C23.5405 14.4601 24.6884 15.7581 26.1215 16.6668C27.5547 17.5754 29.2143 18.0576 30.9086 18.0574ZM8.97389 18.0574C9.41857 18.0574 9.8453 17.9893 10.27 17.9271C10.1324 18.3923 9.99087 18.8654 9.76354 19.2905C9.53622 19.908 9.18127 20.4433 8.82833 20.9826C8.53321 21.566 8.01275 21.961 7.62989 22.4602C7.22909 22.9454 6.68271 23.2681 6.25 23.6711C5.82527 24.0922 5.26892 24.3027 4.82624 24.5994C4.36361 24.866 3.96082 25.1608 3.5301 25.3011L2.4553 25.7462L1.51011 26.1411L2.47723 30.0266L3.66769 29.7379C4.04856 29.6417 4.51317 29.5294 5.0416 29.3951C5.58199 29.2948 6.15827 29.0202 6.80036 28.7695C7.43248 28.4829 8.16829 28.2924 8.85026 27.8333C9.53622 27.3962 10.3279 27.0313 11.0258 26.4459C11.7018 25.8424 12.5173 25.3191 13.1196 24.5533C13.7776 23.8355 14.4277 23.0817 14.9322 22.2236C15.5164 21.4056 15.9132 20.5074 16.332 19.6193C16.7109 18.7311 17.016 17.8229 17.2652 16.9407C17.7378 15.1724 17.9492 13.4923 18.0309 12.0548C18.0987 10.6153 18.0589 9.4184 17.9751 8.55229C17.9452 8.14329 17.8894 7.74632 17.8495 7.47165L17.7996 7.13483L17.7478 7.14686C17.3931 5.48114 16.5767 3.95041 15.3929 2.73174C14.2091 1.51308 12.7063 0.656265 11.0584 0.260433C9.41052 -0.135399 7.68484 -0.0540771 6.081 0.494987C4.47715 1.04405 3.06068 2.03843 1.99545 3.36308C0.930214 4.68773 0.259735 6.28853 0.0615845 7.9803C-0.13657 9.67207 0.145699 11.3857 0.875732 12.9229C1.60576 14.4601 2.75373 15.7581 4.18684 16.6668C5.61995 17.5754 7.27962 18.0576 8.97389 18.0574Z" fill="#BDD1EA"/>
</svg>
