<svg class="{{ .class }}" viewBox="0 0 73 10" fill="none" xmlns="http://www.w3.org/2000/svg">
<path d="M4.90991 0.347373L3.56729 2.93299L0.563373 3.34895C0.0246826 3.42316 -0.191205 4.05395 0.199449 4.41523L2.37272 6.4267L1.8587 9.26814C1.76617 9.78175 2.33571 10.1665 2.81272 9.92627L5.5 8.58464L8.18729 9.92627C8.66429 10.1645 9.23383 9.78175 9.1413 9.26814L8.62729 6.4267L10.8006 4.41523C11.1912 4.05395 10.9753 3.42316 10.4366 3.34895L7.43271 2.93299L6.09009 0.347373C5.84953 -0.113508 5.15252 -0.119367 4.90991 0.347373Z" fill="#FF7020"/>
<path d="M19.9099 0.347373L18.5673 2.93299L15.5634 3.34895C15.0247 3.42316 14.8088 4.05395 15.1994 4.41523L17.3727 6.4267L16.8587 9.26814C16.7662 9.78175 17.3357 10.1665 17.8127 9.92627L20.5 8.58464L23.1873 9.92627C23.6643 10.1645 24.2338 9.78175 24.1413 9.26814L23.6273 6.4267L25.8006 4.41523C26.1912 4.05395 25.9753 3.42316 25.4366 3.34895L22.4327 2.93299L21.0901 0.347373C20.8495 -0.113508 20.1525 -0.119367 19.9099 0.347373Z" fill="#FF7020"/>
<path d="M34.9099 0.347373L33.5673 2.93299L30.5634 3.34895C30.0247 3.42316 29.8088 4.05395 30.1994 4.41523L32.3727 6.4267L31.8587 9.26814C31.7662 9.78175 32.3357 10.1665 32.8127 9.92627L35.5 8.58464L38.1873 9.92627C38.6643 10.1645 39.2338 9.78175 39.1413 9.26814L38.6273 6.4267L40.8006 4.41523C41.1912 4.05395 40.9753 3.42316 40.4366 3.34895L37.4327 2.93299L36.0901 0.347373C35.8495 -0.113508 35.1525 -0.119367 34.9099 0.347373Z" fill="#FF7020"/>
<path d="M49.9099 0.347373L48.5673 2.93299L45.5634 3.34895C45.0247 3.42316 44.8088 4.05395 45.1994 4.41523L47.3727 6.4267L46.8587 9.26814C46.7662 9.78175 47.3357 10.1665 47.8127 9.92627L50.5 8.58464L53.1873 9.92627C53.6643 10.1645 54.2338 9.78175 54.1413 9.26814L53.6273 6.4267L55.8006 4.41523C56.1912 4.05395 55.9753 3.42316 55.4366 3.34895L52.4327 2.93299L51.0901 0.347373C50.8495 -0.113508 50.1525 -0.119367 49.9099 0.347373Z" fill="#FF7020"/>
<path d="M66.9099 0.347373L65.5673 2.93299L62.5634 3.34895C62.0247 3.42316 61.8088 4.05395 62.1994 4.41523L64.3727 6.4267L63.8587 9.26814C63.7662 9.78175 64.3357 10.1665 64.8127 9.92627L67.5 8.58464L70.1873 9.92627C70.6643 10.1645 71.2338 9.78175 71.1413 9.26814L70.6273 6.4267L72.8006 4.41523C73.1912 4.05395 72.9753 3.42316 72.4366 3.34895L69.4327 2.93299L68.0901 0.347373C67.8495 -0.113508 67.1525 -0.119367 66.9099 0.347373Z" fill="#FF7020"/>
</svg>
